# xmcd CD database file
#
# Track frame offsets:
#	150
#	19405
#	37102
#	52927
#	77510
#	97170
#	119587
#	147287
#	164015
#	183047
#	198877
#	221590
#
# Disc length: 3355 seconds
#
# Revision: 0
# Processed by: cddbd v1.4PL0 Copyright (c) Steve Scherf et al.
# Submitted via: NeoAudio 9.9.9
#
DISCID=a90d190c
DTITLE=Pepe Ahlqvist - Tigerbeat
DYEAR=1999
DGENRE=Blues
TTITLE0=Cicada of Chicago
TTITLE1=Pocketknife Man
TTITLE2=Don't Stare At Me
TTITLE3=Moonshine Babe
TTITLE4=Black Hole Blues
TTITLE5=Roll And Tumble Blues
TTITLE6=Cause I Know
TTITLE7=Oh, What a Woman
TTITLE8=Muddy Boots
TTITLE9=Big Big Beat
TTITLE10=Blind Tiger
TTITLE11=Blues for Joel
EXTD=YEAR: 1999
EXTT0=
EXTT1=
EXTT2=
EXTT3=
EXTT4=
EXTT5=
EXTT6=
EXTT7=
EXTT8=
EXTT9=
EXTT10=
EXTT11=
PLAYORDER=
